<svg xmlns="http://www.w3.org/2000/svg" viewBox="0 0 1200 630">
  <rect width="1200" height="630" fill="#171514" />
  <path stroke="#2a2626" d="M0 94.5h1200M0 535.5h1200" />
  <rect x="42" y="42" width="1116" height="546" fill="#201d1d" stroke="#646262" stroke-width="2" />
  <rect x="42" y="42" width="1116" height="72" fill="#2a2626" />
  <path stroke="#646262" stroke-width="2" d="M42 114h1116" />
  <circle cx="84" cy="78" r="10" fill="#ff453a" />
  <circle cx="118" cy="78" r="10" fill="#ffd60a" />
  <circle cx="152" cy="78" r="10" fill="#3fb950" />
  <text x="1090" y="86" text-anchor="end" fill="#9a9898" font-family="'JetBrains Mono', monospace" font-size="20">~/portfolio</text>
  <g transform="translate(82 158) scale(.43)">
    <rect width="512" height="512" rx="88" fill="#171514" stroke="#3a3636" stroke-width="4" />
    <path fill="#fdfcfc" fill-rule="evenodd" d="M96 92h146c75 0 122 42 122 109 0 46-23 80-64 97l76 122h-82l-66-110h-54v110H96V92Zm78 66v88h62c33 0 50-15 50-44 0-30-17-44-50-44h-62Z" />
    <path fill="#fdfcfc" d="M330 92h102v66h-24v67h20v66h-20v129h-78V92Z" />
    <path fill="#3fb950" d="m86 354 36 33-36 33 17 19 57-52-57-52-17 19Zm78 53h62v26h-62v-26Z" />
  </g>
  <text x="352" y="242" fill="#9a9898" font-family="'JetBrains Mono', monospace" font-size="25">$ whoami</text>
  <text x="352" y="316" fill="#fdfcfc" font-family="'JetBrains Mono', monospace" font-size="52" font-weight="700" letter-spacing="-1.5">Rifki Fajar Ramadhani</text>
  <text x="352" y="382" fill="#3fb950" font-family="'JetBrains Mono', monospace" font-size="31" font-weight="600">Full-Stack Engineer</text>
  <text x="352" y="447" fill="#c8c4c4" font-family="'JetBrains Mono', monospace" font-size="22">TypeScript · Golang · React · Vue</text>
  <path fill="#3fb950" d="M352 480h18v31h-18z" />
  <text x="82" y="555" fill="#646262" font-family="'JetBrains Mono', monospace" font-size="18">rifkiramadhani.my.id</text>
</svg>
