<svg xmlns="http://www.w3.org/2000/svg" viewBox="0 0 1200 630">
  <rect width="1200" height="630" fill="#fdfcfc" />
  <path fill="#f1eeee" d="M0 0h1200v14H0zM0 616h1200v14H0z" />
  <rect x="54" y="54" width="1092" height="522" fill="#f8f7f7" stroke="#201d1d" stroke-width="3" />
  <g transform="translate(88 104) scale(.52)">
    <rect width="512" height="512" rx="88" fill="#171514" />
    <path fill="#fdfcfc" fill-rule="evenodd" d="M96 92h146c75 0 122 42 122 109 0 46-23 80-64 97l76 122h-82l-66-110h-54v110H96V92Zm78 66v88h62c33 0 50-15 50-44 0-30-17-44-50-44h-62Z" />
    <path fill="#fdfcfc" d="M330 92h102v66h-24v67h20v66h-20v129h-78V92Z" />
    <path fill="#3fb950" d="m86 354 36 33-36 33 17 19 57-52-57-52-17 19Zm78 53h62v26h-62v-26Z" />
  </g>
  <text x="412" y="170" fill="#646262" font-family="'JetBrains Mono', monospace" font-size="24">$ whoami</text>
  <text x="412" y="257" fill="#201d1d" font-family="'JetBrains Mono', monospace" font-size="50" font-weight="700" letter-spacing="-1.5">Rifki Fajar</text>
  <text x="412" y="318" fill="#201d1d" font-family="'JetBrains Mono', monospace" font-size="50" font-weight="700" letter-spacing="-1.5">Ramadhani</text>
  <text x="412" y="384" fill="#1f8f3c" font-family="'JetBrains Mono', monospace" font-size="30" font-weight="600">Full-Stack Engineer</text>
  <path fill="#1f8f3c" d="m412 430 15 14-15 14 8 9 25-23-25-23-8 9Zm44 26h49v12h-49v-12Z" />
  <text x="88" y="540" fill="#646262" font-family="'JetBrains Mono', monospace" font-size="18">rifkiramadhani.my.id</text>
</svg>
